<svg width="400" height="64" viewBox="0 0 400 64" fill="none" xmlns="http://www.w3.org/2000/svg">
<rect width="400" height="64" rx="4" fill="white"/>
<path fill-rule="evenodd" clip-rule="evenodd" d="M21.6617 22.0004C21.3726 21.994 21.087 22.0647 20.8344 22.2052C20.5818 22.3456 20.3713 22.5508 20.2246 22.7996C20.0778 23.0485 20.0003 23.332 20 23.6207V40.3794C20.0003 40.6681 20.0778 40.9515 20.2246 41.2004C20.3713 41.4492 20.5818 41.6544 20.8344 41.7948C21.087 41.9353 21.3726 42.006 21.6617 41.9996C21.9501 41.9932 22.2316 41.9104 22.4773 41.7596L22.4791 41.7586L35.2142 33.3837C35.4524 33.2413 35.6499 33.0401 35.7876 32.7993C35.9268 32.5558 36 32.2803 36 32C36 31.7197 35.9268 31.4442 35.7876 31.2007C35.6499 30.9599 35.4524 30.7587 35.2142 30.6163L22.4816 22.243L22.4775 22.2405C22.2318 22.0896 21.9502 22.0068 21.6617 22.0004Z" fill="black"/>
<g clip-path="url(#clip0_124_3624)">
<path fill-rule="evenodd" clip-rule="evenodd" d="M99.7248 52C99.4049 52 99.0981 51.9289 98.8714 51.8023C98.6448 51.6757 98.5169 51.5039 98.5156 51.3244V12.6756C98.5169 12.4961 98.6448 12.3243 98.8714 12.1977C99.0981 12.0711 99.4049 12 99.7248 12C100.044 12 100.351 12.0712 100.576 12.1979C100.802 12.3246 100.929 12.4964 100.929 12.6756V51.3244C100.929 51.5036 100.802 51.6754 100.576 51.8021C100.351 51.9288 100.044 52 99.7248 52ZM86.3701 32.0564V17.8513C86.3714 17.6719 86.4993 17.5001 86.7259 17.3735C86.9526 17.2469 87.2594 17.1758 87.5793 17.1758C87.8987 17.1758 88.2051 17.2469 88.4309 17.3736C88.6568 17.5003 88.7837 17.6722 88.7837 17.8513V46.1506C88.7837 46.3297 88.6568 46.5016 88.4309 46.6283C88.2051 46.755 87.8987 46.8261 87.5793 46.8261C87.2594 46.8261 86.9526 46.755 86.7259 46.6284C86.4993 46.5018 86.3714 46.33 86.3701 46.1506V32.0564ZM68.1465 18.5662V32.0561V45.4352C68.1459 45.524 68.1766 45.612 68.2369 45.6941C68.2972 45.7762 68.3859 45.8508 68.4979 45.9136C68.6098 45.9764 68.7429 46.0262 68.8893 46.06C69.0357 46.0938 69.1926 46.1111 69.3509 46.1107C69.5095 46.1111 69.6666 46.0938 69.8133 46.06C69.96 46.0263 70.0933 45.9765 70.2057 45.9138C70.318 45.851 70.4071 45.7764 70.468 45.6943C70.5288 45.6122 70.5601 45.5241 70.5601 45.4352V18.5662C70.5601 18.4772 70.5288 18.3892 70.468 18.307C70.4071 18.2249 70.318 18.1503 70.2057 18.0876C70.0933 18.0248 69.96 17.9751 69.8133 17.9413C69.6666 17.9075 69.5095 17.8903 69.3509 17.8906C69.1926 17.8903 69.0357 17.9075 68.8893 17.9413C68.7429 17.9752 68.6098 18.0249 68.4979 18.0877C68.3859 18.1505 68.2972 18.2251 68.2369 18.3072C68.1766 18.3894 68.1459 18.4774 68.1465 18.5662ZM62.0734 32.0552V25.5609C62.0709 25.4713 62.1002 25.3823 62.1596 25.2992C62.219 25.216 62.3073 25.1402 62.4194 25.0764C62.5315 25.0125 62.6652 24.9618 62.8125 24.9272C62.9599 24.8926 63.1181 24.8748 63.2778 24.8748C63.5977 24.8748 63.9046 24.9459 64.1312 25.0725C64.3578 25.1991 64.4857 25.371 64.487 25.5504V38.428C64.4914 38.5187 64.4634 38.6088 64.4046 38.6933C64.3458 38.7777 64.2574 38.8546 64.1447 38.9196C64.032 38.9845 63.8972 39.0361 63.7483 39.0714C63.5994 39.1066 63.4394 39.1247 63.2778 39.1247C62.9584 39.1247 62.652 39.0535 62.4262 38.9268C62.2003 38.8002 62.0734 38.6283 62.0734 38.4492V32.0552ZM56 32.0557V29.8496C56.0012 29.6702 56.1292 29.4983 56.3558 29.3717C56.5824 29.2451 56.8893 29.174 57.2092 29.174C57.5286 29.174 57.8349 29.2452 58.0608 29.3719C58.2867 29.4986 58.4136 29.6704 58.4136 29.8496V34.1509C58.4136 34.3301 58.2867 34.5019 58.0608 34.6286C57.8349 34.7553 57.5286 34.8265 57.2092 34.8265C56.8893 34.8265 56.5824 34.7554 56.3558 34.6288C56.1292 34.5022 56.0012 34.3303 56 34.1509V32.0557ZM74.2197 32.0553V23.4921C74.2197 23.313 74.3466 23.1411 74.5725 23.0145C74.7984 22.8878 75.1047 22.8166 75.4242 22.8166C75.7436 22.8166 76.05 22.8878 76.2758 23.0145C76.5017 23.1411 76.6286 23.313 76.6286 23.4921V40.5076C76.6286 40.6867 76.5017 40.8586 76.2758 40.9853C76.05 41.112 75.7436 41.1831 75.4242 41.1831C75.1047 41.1831 74.7984 41.112 74.5725 40.9853C74.3466 40.8586 74.2197 40.6867 74.2197 40.5076V32.0553ZM80.2969 26.768V32.0458V37.2338C80.2963 37.3227 80.327 37.4109 80.3872 37.4931C80.4475 37.5754 80.5361 37.6502 80.648 37.7132C80.7599 37.7762 80.8929 37.8262 81.0393 37.8603C81.1858 37.8944 81.3428 37.912 81.5013 37.912C81.822 37.912 82.1296 37.8405 82.3563 37.7133C82.5831 37.5862 82.7105 37.4137 82.7105 37.2338V26.768C82.7105 26.5882 82.5831 26.4157 82.3563 26.2885C82.1296 26.1613 81.822 26.0898 81.5013 26.0898C81.3428 26.0898 81.1858 26.1074 81.0393 26.1415C80.8929 26.1756 80.7599 26.2256 80.648 26.2886C80.5361 26.3516 80.4475 26.4264 80.3872 26.5087C80.327 26.591 80.2963 26.6791 80.2969 26.768ZM92.4424 23.4921V32.0553V40.5076C92.4436 40.687 92.5716 40.8588 92.7982 40.9854C93.0248 41.112 93.3317 41.1831 93.6515 41.1831C93.971 41.1831 94.2773 41.112 94.5032 40.9853C94.7291 40.8586 94.856 40.6867 94.856 40.5076V23.4921C94.856 23.313 94.7291 23.1411 94.5032 23.0145C94.2773 22.8878 93.971 22.8166 93.6515 22.8166C93.3317 22.8166 93.0248 22.8877 92.7982 23.0143C92.5716 23.1409 92.4436 23.3127 92.4424 23.4921ZM106.646 49.7848C106.419 49.8985 106.112 49.9624 105.792 49.9624C105.473 49.9624 105.167 49.8985 104.941 49.7847C104.715 49.6709 104.588 49.5166 104.588 49.3557V14.644C104.588 14.4831 104.715 14.3288 104.941 14.215C105.167 14.1012 105.473 14.0373 105.792 14.0373C106.112 14.0373 106.419 14.1011 106.646 14.2149C106.872 14.3286 107 14.4829 107.001 14.644V49.3557C107 49.5168 106.872 49.6711 106.646 49.7848ZM113.075 32.0553V23.4921C113.073 23.3127 112.946 23.1409 112.719 23.0143C112.492 22.8877 112.185 22.8166 111.866 22.8166C111.546 22.8166 111.24 22.8878 111.014 23.0145C110.788 23.1411 110.661 23.313 110.661 23.4921V40.5076C110.661 40.6867 110.788 40.8586 111.014 40.9853C111.24 41.112 111.546 41.1831 111.866 41.1831C112.185 41.1831 112.492 41.112 112.719 40.9854C112.946 40.8588 113.073 40.687 113.075 40.5076V32.0553ZM119.158 17.8513V32.0564V46.1506C119.156 46.33 119.028 46.5018 118.802 46.6284C118.575 46.755 118.268 46.8261 117.948 46.8261C117.629 46.8261 117.322 46.755 117.095 46.6284C116.868 46.5018 116.741 46.33 116.739 46.1506V17.8513C116.741 17.6719 116.868 17.5001 117.095 17.3735C117.322 17.2469 117.629 17.1758 117.948 17.1758C118.268 17.1758 118.575 17.2469 118.802 17.3735C119.028 17.5001 119.156 17.6719 119.158 17.8513ZM125.234 32.0458V26.768C125.234 26.5886 125.107 26.4165 124.881 26.2894C124.656 26.1623 124.349 26.0905 124.029 26.0898C123.709 26.0898 123.401 26.1613 123.174 26.2885C122.948 26.4157 122.82 26.5882 122.82 26.768V37.2338C122.82 37.4137 122.948 37.5862 123.174 37.7133C123.401 37.8405 123.709 37.912 124.029 37.912C124.349 37.9113 124.656 37.8395 124.881 37.7124C125.107 37.5853 125.234 37.4132 125.234 37.2338V32.0458ZM131.306 23.4921V32.0553V40.5076C131.305 40.687 131.177 40.8588 130.95 40.9854C130.724 41.112 130.417 41.1831 130.097 41.1831C129.778 41.1831 129.471 41.112 129.245 40.9853C129.019 40.8586 128.893 40.6867 128.893 40.5076V23.4921C128.893 23.313 129.019 23.1411 129.245 23.0145C129.471 22.8878 129.778 22.8166 130.097 22.8166C130.417 22.8166 130.724 22.8877 130.95 23.0143C131.177 23.1409 131.305 23.3127 131.306 23.4921ZM137.379 32.0561V18.5662C137.379 18.387 137.253 18.2152 137.027 18.0885C136.801 17.9618 136.494 17.8906 136.175 17.8906C136.016 17.8903 135.859 17.9075 135.713 17.9413C135.566 17.9751 135.433 18.0248 135.32 18.0876C135.208 18.1503 135.119 18.2249 135.058 18.307C134.997 18.3892 134.966 18.4772 134.966 18.5662V45.4352C134.966 45.5241 134.997 45.6122 135.058 45.6943C135.119 45.7764 135.208 45.851 135.32 45.9138C135.433 45.9765 135.566 46.0263 135.713 46.06C135.859 46.0938 136.016 46.1111 136.175 46.1107C136.494 46.1107 136.801 46.0395 137.027 45.9128C137.253 45.7862 137.379 45.6143 137.379 45.4352V32.0561ZM143.453 25.5603V32.0546V38.438C143.451 38.6174 143.323 38.7892 143.097 38.9159C142.87 39.0425 142.563 39.1136 142.244 39.1136C141.924 39.1136 141.618 39.0424 141.392 38.9157C141.166 38.789 141.039 38.6172 141.039 38.438V25.5603C141.039 25.3811 141.166 25.2093 141.392 25.0826C141.618 24.9559 141.924 24.8848 142.244 24.8848C142.563 24.8848 142.87 24.9558 143.097 25.0825C143.323 25.2091 143.451 25.3809 143.453 25.5603ZM149.525 32.0557V29.8496C149.524 29.6702 149.396 29.4983 149.169 29.3717C148.942 29.2451 148.636 29.174 148.316 29.174C147.996 29.174 147.69 29.2452 147.464 29.3719C147.238 29.4986 147.111 29.6704 147.111 29.8496V34.1509C147.111 34.3301 147.238 34.5019 147.464 34.6286C147.69 34.7553 147.996 34.8265 148.316 34.8265C148.636 34.8265 148.942 34.7554 149.169 34.6288C149.396 34.5022 149.524 34.3303 149.525 34.1509V32.0557ZM153.189 29.8496V32.0557V34.1509C153.191 34.3303 153.319 34.5022 153.545 34.6288C153.772 34.7554 154.079 34.8265 154.399 34.8265C154.718 34.8265 155.024 34.7553 155.25 34.6286C155.476 34.5019 155.603 34.3301 155.603 34.1509V29.8496C155.603 29.6704 155.476 29.4986 155.25 29.3719C155.024 29.2452 154.718 29.174 154.399 29.174C154.079 29.174 153.772 29.2451 153.545 29.3717C153.319 29.4983 153.191 29.6702 153.189 29.8496ZM159.266 32.0546V25.5603C159.267 25.3809 159.395 25.2091 159.621 25.0825C159.848 24.9558 160.155 24.8848 160.475 24.8848C160.794 24.8848 161.101 24.9559 161.326 25.0826C161.552 25.2093 161.679 25.3811 161.679 25.5603V38.438C161.679 38.6172 161.552 38.789 161.326 38.9157C161.101 39.0424 160.794 39.1136 160.475 39.1136C160.155 39.1136 159.848 39.0425 159.621 38.9159C159.395 38.7892 159.267 38.6174 159.266 38.438V32.0546ZM165.339 18.5662V32.0561V45.4352C165.339 45.6143 165.466 45.7862 165.692 45.9128C165.918 46.0395 166.224 46.1107 166.543 46.1107C166.702 46.1111 166.859 46.0938 167.006 46.06C167.152 46.0263 167.286 45.9765 167.398 45.9138C167.51 45.851 167.6 45.7764 167.66 45.6943C167.721 45.6122 167.752 45.5241 167.752 45.4352V18.5662C167.752 18.4772 167.721 18.3892 167.66 18.307C167.6 18.2249 167.51 18.1503 167.398 18.0876C167.286 18.0248 167.152 17.9751 167.006 17.9413C166.859 17.9075 166.702 17.8903 166.543 17.8906C166.224 17.8906 165.918 17.9618 165.692 18.0885C165.466 18.2152 165.339 18.387 165.339 18.5662ZM171.412 32.0553V23.4921C171.413 23.3127 171.541 23.1409 171.768 23.0143C171.995 22.8877 172.301 22.8166 172.621 22.8166C172.941 22.8166 173.247 22.8878 173.473 23.0145C173.699 23.1411 173.826 23.313 173.826 23.4921V40.5076C173.826 40.6867 173.699 40.8586 173.473 40.9853C173.247 41.112 172.941 41.1831 172.621 41.1831C172.301 41.1831 171.995 41.112 171.768 40.9854C171.541 40.8588 171.413 40.687 171.412 40.5076V32.0553ZM177.484 26.768V32.0458V37.2338C177.484 37.4132 177.611 37.5853 177.837 37.7124C178.063 37.8395 178.369 37.9113 178.689 37.912C179.01 37.912 179.317 37.8405 179.544 37.7133C179.771 37.5862 179.898 37.4137 179.898 37.2338V26.768C179.898 26.5882 179.771 26.4157 179.544 26.2885C179.317 26.1613 179.01 26.0898 178.689 26.0898C178.369 26.0905 178.063 26.1623 177.837 26.2894C177.611 26.4165 177.484 26.5886 177.484 26.768ZM183.559 32.0564V17.8513C183.56 17.6719 183.688 17.5001 183.914 17.3735C184.141 17.2469 184.448 17.1758 184.768 17.1758C185.088 17.1758 185.394 17.2469 185.621 17.3735C185.848 17.5001 185.976 17.6719 185.977 17.8513V46.1506C185.976 46.33 185.848 46.5018 185.621 46.6284C185.394 46.755 185.088 46.8261 184.768 46.8261C184.448 46.8261 184.141 46.755 183.914 46.6284C183.688 46.5018 183.56 46.33 183.559 46.1506V32.0564ZM189.638 23.4921V32.0553V40.5076C189.639 40.687 189.767 40.8588 189.993 40.9854C190.22 41.112 190.527 41.1831 190.847 41.1831C191.166 41.1831 191.473 41.112 191.699 40.9853C191.924 40.8586 192.051 40.6867 192.051 40.5076V23.4921C192.051 23.313 191.924 23.1411 191.699 23.0145C191.473 22.8878 191.166 22.8166 190.847 22.8166C190.527 22.8166 190.22 22.8877 189.993 23.0143C189.767 23.1409 189.639 23.3127 189.638 23.4921ZM196.922 52C196.602 52 196.295 51.9289 196.069 51.8023C195.842 51.6757 195.714 51.5039 195.713 51.3244V12.6756C195.714 12.4961 195.842 12.3243 196.069 12.1977C196.295 12.0711 196.602 12 196.922 12C197.241 12 197.548 12.0712 197.774 12.1979C198 12.3246 198.126 12.4964 198.126 12.6756V51.3244C198.126 51.5036 198 51.6754 197.774 51.8021C197.548 51.9288 197.241 52 196.922 52ZM203.847 48.7693C203.62 48.8765 203.313 48.9367 202.994 48.9367C202.674 48.9367 202.368 48.8764 202.142 48.7691C201.916 48.6619 201.789 48.5164 201.789 48.3646V15.6365C201.789 15.4848 201.916 15.3393 202.142 15.232C202.368 15.1247 202.674 15.0645 202.994 15.0645C203.313 15.0645 203.62 15.1247 203.847 15.2319C204.073 15.3391 204.201 15.4846 204.203 15.6365V48.3646C204.201 48.5166 204.073 48.6621 203.847 48.7693ZM210.276 32.0553V23.4921C210.275 23.3127 210.147 23.1409 209.92 23.0143C209.693 22.8877 209.387 22.8166 209.067 22.8166C208.747 22.8166 208.441 22.8878 208.215 23.0145C207.989 23.1411 207.862 23.313 207.862 23.4921V40.5076C207.862 40.6867 207.989 40.8586 208.215 40.9853C208.441 41.112 208.747 41.1831 209.067 41.1831C209.387 41.1831 209.693 41.112 209.92 40.9854C210.147 40.8588 210.275 40.687 210.276 40.5076V32.0553ZM216.349 17.8513V32.0564V46.1506C216.348 46.33 216.22 46.5018 215.993 46.6284C215.767 46.755 215.46 46.8261 215.14 46.8261C214.821 46.8261 214.514 46.755 214.288 46.6283C214.062 46.5016 213.936 46.3297 213.936 46.1506V17.8513C213.936 17.6722 214.062 17.5003 214.288 17.3736C214.514 17.2469 214.821 17.1758 215.14 17.1758C215.46 17.1758 215.767 17.2469 215.993 17.3735C216.22 17.5001 216.348 17.6719 216.349 17.8513ZM222.413 32.0563V26.7786C222.416 26.6892 222.388 26.6004 222.329 26.5172C222.27 26.4341 222.183 26.3583 222.072 26.2942C221.961 26.2302 221.828 26.1791 221.681 26.144C221.535 26.1089 221.377 26.0905 221.218 26.0898C220.897 26.0898 220.59 26.1613 220.363 26.2885C220.136 26.4157 220.009 26.5882 220.009 26.768V37.2338C220.009 37.4137 220.136 37.5862 220.363 37.7133C220.59 37.8405 220.897 37.912 221.218 37.912C221.377 37.912 221.534 37.8944 221.68 37.8603C221.826 37.8262 221.959 37.7762 222.071 37.7132C222.183 37.6502 222.272 37.5754 222.332 37.4931C222.392 37.4109 222.423 37.3227 222.422 37.2338L222.413 32.0563ZM228.498 23.4921V32.0553V40.5076C228.498 40.6867 228.371 40.8586 228.145 40.9853C227.919 41.112 227.613 41.1831 227.293 41.1831C226.973 41.1831 226.666 41.112 226.44 40.9854C226.213 40.8588 226.085 40.687 226.084 40.5076V23.4921C226.085 23.3127 226.213 23.1409 226.44 23.0143C226.666 22.8877 226.973 22.8166 227.293 22.8166C227.613 22.8166 227.919 22.8878 228.145 23.0145C228.371 23.1411 228.498 23.313 228.498 23.4921ZM234.577 32.0561V18.5662C234.577 18.4772 234.546 18.3892 234.485 18.307C234.425 18.2249 234.335 18.1503 234.223 18.0876C234.111 18.0248 233.977 17.9751 233.831 17.9413C233.684 17.9075 233.527 17.8903 233.368 17.8906C233.21 17.8903 233.053 17.9075 232.906 17.9413C232.759 17.9751 232.626 18.0248 232.514 18.0876C232.401 18.1503 232.312 18.2249 232.251 18.307C232.19 18.3892 232.159 18.4772 232.159 18.5662V45.4352C232.159 45.5241 232.19 45.6122 232.251 45.6943C232.312 45.7764 232.401 45.851 232.514 45.9138C232.626 45.9765 232.759 46.0263 232.906 46.06C233.053 46.0938 233.21 46.1111 233.368 46.1107C233.527 46.1111 233.684 46.0938 233.831 46.06C233.977 46.0263 234.111 45.9765 234.223 45.9138C234.335 45.851 234.425 45.7764 234.485 45.6943C234.546 45.6122 234.577 45.5241 234.577 45.4352V32.0561ZM240.652 25.5603V32.0546V38.438C240.652 38.6172 240.525 38.789 240.299 38.9157C240.073 39.0424 239.767 39.1136 239.447 39.1136C239.128 39.1136 238.821 39.0425 238.594 38.9159C238.367 38.7892 238.24 38.6174 238.238 38.438V25.5603C238.24 25.3809 238.367 25.2091 238.594 25.0825C238.821 24.9558 239.128 24.8848 239.447 24.8848C239.767 24.8848 240.073 24.9559 240.299 25.0826C240.525 25.2093 240.652 25.3811 240.652 25.5603ZM246.727 32.0557V29.8496C246.726 29.6702 246.598 29.4983 246.371 29.3717C246.145 29.2451 245.838 29.174 245.518 29.174C245.198 29.174 244.892 29.2452 244.666 29.3719C244.44 29.4986 244.313 29.6704 244.313 29.8496V34.1509C244.313 34.3301 244.44 34.5019 244.666 34.6286C244.892 34.7553 245.198 34.8265 245.518 34.8265C245.838 34.8265 246.145 34.7554 246.371 34.6288C246.598 34.5022 246.726 34.3303 246.727 34.1509V32.0557ZM250.387 29.8496V32.0557V34.1509C250.387 34.3301 250.514 34.5019 250.74 34.6286C250.965 34.7553 251.272 34.8265 251.591 34.8265C251.911 34.8265 252.218 34.7554 252.445 34.6288C252.671 34.5022 252.799 34.3303 252.8 34.1509V29.8496C252.799 29.6702 252.671 29.4983 252.445 29.3717C252.218 29.2451 251.911 29.174 251.591 29.174C251.272 29.174 250.965 29.2452 250.74 29.3719C250.514 29.4986 250.387 29.6704 250.387 29.8496ZM256.46 32.0552V25.5609C256.458 25.4712 256.488 25.3822 256.548 25.299C256.608 25.2158 256.697 25.1401 256.809 25.0762C256.922 25.0124 257.056 24.9618 257.203 24.9272C257.351 24.8926 257.509 24.8748 257.669 24.8748C257.989 24.8748 258.296 24.9459 258.523 25.0725C258.749 25.1991 258.877 25.371 258.878 25.5504V38.428C258.883 38.5187 258.855 38.6088 258.796 38.6933C258.737 38.7777 258.649 38.8546 258.536 38.9196C258.423 38.9845 258.289 39.0361 258.14 39.0714C257.991 39.1066 257.831 39.1247 257.669 39.1247C257.349 39.1247 257.042 39.0536 256.816 38.927C256.589 38.8004 256.461 38.6286 256.46 38.4492V32.0552ZM262.539 18.5662V32.0561V45.4352C262.539 45.5241 262.57 45.6122 262.631 45.6943C262.692 45.7764 262.781 45.851 262.894 45.9138C263.006 45.9765 263.139 46.0263 263.286 46.06C263.433 46.0938 263.59 46.1111 263.748 46.1107C264.068 46.1107 264.374 46.0395 264.6 45.9128C264.826 45.7862 264.953 45.6143 264.953 45.4352V18.5662C264.953 18.387 264.826 18.2152 264.6 18.0885C264.374 17.9618 264.068 17.8906 263.748 17.8906C263.59 17.8903 263.433 17.9075 263.286 17.9413C263.139 17.9751 263.006 18.0248 262.894 18.0876C262.781 18.1503 262.692 18.2249 262.631 18.307C262.57 18.3892 262.539 18.4772 262.539 18.5662ZM268.614 32.0553V23.4921C268.614 23.313 268.741 23.1411 268.967 23.0145C269.193 22.8878 269.499 22.8166 269.819 22.8166C270.139 22.8166 270.445 22.8877 270.672 23.0143C270.899 23.1409 271.027 23.3127 271.028 23.4921V40.5076C271.027 40.687 270.899 40.8588 270.672 40.9854C270.445 41.112 270.139 41.1831 269.819 41.1831C269.499 41.1831 269.193 41.112 268.967 40.9853C268.741 40.8586 268.614 40.6867 268.614 40.5076V32.0553ZM274.688 26.768V32.0458V37.2338C274.688 37.4137 274.815 37.5862 275.042 37.7133C275.268 37.8405 275.576 37.912 275.897 37.912C276.055 37.912 276.212 37.8944 276.359 37.8603C276.505 37.8262 276.638 37.7762 276.75 37.7132C276.862 37.6502 276.951 37.5754 277.011 37.4931C277.071 37.4109 277.102 37.3227 277.101 37.2338V26.768C277.102 26.6791 277.071 26.591 277.011 26.5087C276.951 26.4264 276.862 26.3516 276.75 26.2886C276.638 26.2256 276.505 26.1756 276.359 26.1415C276.212 26.1074 276.055 26.0898 275.897 26.0898C275.576 26.0898 275.268 26.1613 275.042 26.2885C274.815 26.4157 274.688 26.5882 274.688 26.768ZM280.765 32.0564V17.8513C280.766 17.6719 280.894 17.5001 281.12 17.3735C281.347 17.2469 281.654 17.1758 281.974 17.1758C282.293 17.1758 282.6 17.2469 282.825 17.3736C283.051 17.5003 283.178 17.6722 283.178 17.8513V46.1506C283.178 46.3297 283.051 46.5016 282.825 46.6283C282.6 46.755 282.293 46.8261 281.974 46.8261C281.654 46.8261 281.347 46.755 281.12 46.6284C280.894 46.5018 280.766 46.33 280.765 46.1506V32.0564ZM286.838 23.4921V32.0553V40.5076C286.838 40.6867 286.965 40.8586 287.191 40.9853C287.417 41.112 287.723 41.1831 288.042 41.1831C288.362 41.1831 288.669 41.112 288.896 40.9854C289.122 40.8588 289.25 40.687 289.251 40.5076V23.4921C289.25 23.3127 289.122 23.1409 288.896 23.0143C288.669 22.8877 288.362 22.8166 288.042 22.8166C287.723 22.8166 287.417 22.8878 287.191 23.0145C286.965 23.1411 286.838 23.313 286.838 23.4921ZM294.116 52C293.796 52 293.49 51.9288 293.264 51.8021C293.038 51.6754 292.911 51.5036 292.911 51.3244V12.6756C292.911 12.4964 293.038 12.3246 293.264 12.1979C293.49 12.0712 293.796 12 294.116 12C294.435 12 294.742 12.0711 294.969 12.1977C295.196 12.3243 295.323 12.4961 295.325 12.6756V51.3244C295.323 51.5039 295.196 51.6757 294.969 51.8023C294.742 51.9289 294.435 52 294.116 52ZM301.046 35.3801C300.82 35.5068 300.514 35.578 300.195 35.578C299.875 35.578 299.568 35.5069 299.341 35.3803C299.115 35.2537 298.987 35.0819 298.985 34.9025V29.0994C298.987 28.92 299.115 28.7481 299.341 28.6215C299.568 28.4949 299.875 28.4238 300.195 28.4238C300.514 28.4238 300.82 28.495 301.046 28.6217C301.272 28.7484 301.399 28.9202 301.399 29.0994V34.9025C301.399 35.0816 301.272 35.2535 301.046 35.3801ZM307.472 32.0553V23.4921C307.472 23.313 307.345 23.1411 307.119 23.0145C306.894 22.8878 306.587 22.8166 306.268 22.8166C305.948 22.8166 305.641 22.8877 305.414 23.0143C305.188 23.1409 305.06 23.3127 305.059 23.4921V40.5076C305.06 40.687 305.188 40.8588 305.414 40.9854C305.641 41.112 305.948 41.1831 306.268 41.1831C306.587 41.1831 306.894 41.112 307.119 40.9853C307.345 40.8586 307.472 40.6867 307.472 40.5076V32.0553ZM313.548 17.8513V32.0564V46.1506C313.548 46.3297 313.421 46.5016 313.196 46.6283C312.97 46.755 312.663 46.8261 312.344 46.8261C312.024 46.8261 311.717 46.755 311.491 46.6284C311.264 46.5018 311.136 46.33 311.135 46.1506V17.8513C311.136 17.6719 311.264 17.5001 311.491 17.3735C311.717 17.2469 312.024 17.1758 312.344 17.1758C312.663 17.1758 312.97 17.2469 313.196 17.3736C313.421 17.5003 313.548 17.6722 313.548 17.8513ZM319.622 32.0458V26.768C319.622 26.5882 319.494 26.4157 319.267 26.2885C319.041 26.1613 318.733 26.0898 318.412 26.0898C318.093 26.0905 317.786 26.1623 317.56 26.2894C317.335 26.4165 317.208 26.5886 317.208 26.768V37.2338C317.208 37.4132 317.335 37.5853 317.56 37.7124C317.786 37.8395 318.093 37.9113 318.412 37.912C318.733 37.912 319.041 37.8405 319.267 37.7133C319.494 37.5862 319.622 37.4137 319.622 37.2338V32.0458ZM325.702 23.4921V32.0553V40.5076C325.701 40.687 325.573 40.8588 325.347 40.9854C325.12 41.112 324.813 41.1831 324.493 41.1831C324.173 41.1831 323.867 41.112 323.64 40.9854C323.413 40.8588 323.285 40.687 323.284 40.5076V23.4921C323.285 23.3127 323.413 23.1409 323.64 23.0143C323.867 22.8877 324.173 22.8166 324.493 22.8166C324.813 22.8166 325.12 22.8877 325.347 23.0143C325.573 23.1409 325.701 23.3127 325.702 23.4921ZM331.776 32.0561V18.5662C331.776 18.4772 331.745 18.3892 331.684 18.307C331.623 18.2249 331.534 18.1503 331.421 18.0876C331.309 18.0248 331.176 17.9751 331.029 17.9413C330.882 17.9075 330.725 17.8903 330.567 17.8906C330.247 17.8906 329.941 17.9618 329.715 18.0885C329.489 18.2152 329.362 18.387 329.362 18.5662V45.4352C329.362 45.6143 329.489 45.7862 329.715 45.9128C329.941 46.0395 330.247 46.1107 330.567 46.1107C330.725 46.1111 330.882 46.0938 331.029 46.06C331.176 46.0263 331.309 45.9765 331.421 45.9138C331.534 45.851 331.623 45.7764 331.684 45.6943C331.745 45.6122 331.776 45.5241 331.776 45.4352V32.0561ZM337.852 25.5609V32.0552V38.4492C337.85 38.6286 337.723 38.8004 337.496 38.927C337.269 39.0536 336.962 39.1247 336.643 39.1247C336.481 39.1248 336.321 39.1066 336.173 39.0713C336.024 39.0361 335.89 38.9844 335.777 38.9194C335.665 38.8545 335.577 38.7775 335.519 38.6931C335.46 38.6087 335.433 38.5185 335.438 38.428V25.5504C335.438 25.3712 335.565 25.1994 335.791 25.0727C336.017 24.946 336.323 24.8748 336.643 24.8748C336.803 24.8748 336.961 24.8926 337.109 24.9272C337.256 24.9618 337.39 25.0124 337.503 25.0762C337.615 25.1401 337.704 25.2158 337.764 25.299C337.824 25.3822 337.854 25.4712 337.852 25.5609ZM343.923 32.0557V29.8496C343.923 29.6704 343.796 29.4986 343.571 29.3719C343.345 29.2452 343.038 29.174 342.719 29.174C342.399 29.174 342.092 29.2451 341.866 29.3717C341.639 29.4983 341.511 29.6702 341.51 29.8496V34.1509C341.511 34.3303 341.639 34.5022 341.866 34.6288C342.092 34.7554 342.399 34.8265 342.719 34.8265C343.038 34.8265 343.345 34.7553 343.571 34.6286C343.796 34.5019 343.923 34.3301 343.923 34.1509V32.0557ZM347.586 29.8496V32.0557V34.1509C347.587 34.3303 347.715 34.5022 347.942 34.6288C348.168 34.7554 348.475 34.8265 348.795 34.8265C349.115 34.8265 349.421 34.7553 349.647 34.6286C349.873 34.5019 350 34.3301 350 34.1509V29.8496C350 29.6704 349.873 29.4986 349.647 29.3719C349.421 29.2452 349.115 29.174 348.795 29.174C348.475 29.174 348.168 29.2451 347.942 29.3717C347.715 29.4983 347.587 29.6702 347.586 29.8496Z" fill="#231F20"/>
</g>
<path d="M345.476 33.123H350.173V32.171H345.476V33.123ZM354.449 36.098C355.504 36.098 356.283 35.8973 356.787 35.496C357.291 35.09 357.543 34.4647 357.543 33.62V28.951C357.543 28.111 357.289 27.4903 356.78 27.089C356.276 26.683 355.499 26.48 354.449 26.48C353.395 26.48 352.613 26.6807 352.104 27.082C351.6 27.4833 351.348 28.1063 351.348 28.951V33.62C351.348 34.4647 351.603 35.09 352.111 35.496C352.62 35.8973 353.399 36.098 354.449 36.098ZM354.449 35.104C353.857 35.104 353.427 34.978 353.161 34.726C352.9 34.4693 352.769 34.0773 352.769 33.55V29.021C352.769 28.4937 352.898 28.104 353.154 27.852C353.416 27.6 353.847 27.474 354.449 27.474C355.037 27.474 355.462 27.6023 355.723 27.859C355.989 28.111 356.122 28.4983 356.122 29.021V33.55C356.122 34.0727 355.989 34.4623 355.723 34.719C355.462 34.9757 355.037 35.104 354.449 35.104ZM361.925 36.098C363.218 36.098 364.074 35.8553 364.494 35.37C364.919 34.88 365.131 34.194 365.131 33.312C365.131 32.6633 364.959 32.1663 364.613 31.821C364.268 31.471 363.738 31.2867 363.024 31.268C363.734 31.24 364.261 31.044 364.606 30.68C364.956 30.316 365.131 29.8073 365.131 29.154C365.131 28.3327 364.917 27.6817 364.487 27.201C364.063 26.7203 363.209 26.48 361.925 26.48C360.689 26.48 359.842 26.7577 359.384 27.313C358.932 27.8637 358.705 28.7247 358.705 29.896H360.119C360.119 28.8553 360.271 28.188 360.574 27.894C360.882 27.6 361.335 27.453 361.932 27.453C362.539 27.453 362.987 27.5907 363.276 27.866C363.57 28.1367 363.717 28.6383 363.717 29.371C363.717 29.8843 363.563 30.253 363.255 30.477C362.952 30.6963 362.397 30.8153 361.589 30.834V31.744C362.397 31.758 362.952 31.8677 363.255 32.073C363.563 32.2737 363.717 32.6377 363.717 33.165C363.717 33.9257 363.575 34.4413 363.29 34.712C363.006 34.9827 362.553 35.118 361.932 35.118C361.312 35.118 360.854 34.978 360.56 34.698C360.266 34.418 360.119 33.8043 360.119 32.857H358.705C358.705 33.9583 358.925 34.775 359.363 35.307C359.807 35.8343 360.661 36.098 361.925 36.098ZM366.342 34.705V36H367.679V34.705H366.342ZM366.342 27.922V29.217H367.679V27.922H366.342ZM372.261 36.098C373.554 36.098 374.41 35.8553 374.83 35.37C375.255 34.88 375.467 34.194 375.467 33.312C375.467 32.6633 375.295 32.1663 374.949 31.821C374.604 31.471 374.074 31.2867 373.36 31.268C374.07 31.24 374.597 31.044 374.942 30.68C375.292 30.316 375.467 29.8073 375.467 29.154C375.467 28.3327 375.253 27.6817 374.823 27.201C374.399 26.7203 373.545 26.48 372.261 26.48C371.025 26.48 370.178 26.7577 369.72 27.313C369.268 27.8637 369.041 28.7247 369.041 29.896H370.455C370.455 28.8553 370.607 28.188 370.91 27.894C371.218 27.6 371.671 27.453 372.268 27.453C372.875 27.453 373.323 27.5907 373.612 27.866C373.906 28.1367 374.053 28.6383 374.053 29.371C374.053 29.8843 373.899 30.253 373.591 30.477C373.288 30.6963 372.733 30.8153 371.925 30.834V31.744C372.733 31.758 373.288 31.8677 373.591 32.073C373.899 32.2737 374.053 32.6377 374.053 33.165C374.053 33.9257 373.911 34.4413 373.626 34.712C373.342 34.9827 372.889 35.118 372.268 35.118C371.648 35.118 371.19 34.978 370.896 34.698C370.602 34.418 370.455 33.8043 370.455 32.857H369.041C369.041 33.9583 369.261 34.775 369.699 35.307C370.143 35.8343 370.997 36.098 372.261 36.098ZM380.395 36H381.802V33.655H383.027V32.717H381.802V26.55H379.702L376.433 32.71V33.655H380.395V36ZM377.861 32.717L380.479 27.474H380.395V32.717H377.861Z" fill="black"/>
<defs>
<clipPath id="clip0_124_3624">
<rect width="273" height="40" fill="white" transform="translate(56 12)"/>
</clipPath>
</defs>
</svg>
